<?xml version="1.0" encoding="UTF-8"?>
<svg version="1.1" xmlns="http://www.w3.org/2000/svg" width="24" height="24">
<path d="M0 0 C0.66 0 1.32 0 2 0 C2 0.66 2 1.32 2 2 C4.64 2 7.28 2 10 2 C10 1.34 10 0.68 10 0 C10.66 0 11.32 0 12 0 C12 0.66 12 1.32 12 2 C12.99 2 13.98 2 15 2 C15 7.94 15 13.88 15 20 C9.06 20 3.12 20 -3 20 C-3 14.06 -3 8.12 -3 2 C-2.01 2 -1.02 2 0 2 C0 1.34 0 0.68 0 0 Z M-1 7 C-1.020625 8.629375 -1.04125 10.25875 -1.0625 11.9375 C-1.07410156 12.85402344 -1.08570313 13.77054688 -1.09765625 14.71484375 C-1.25949049 16.96593327 -1.25949049 16.96593327 0 18 C1.99799572 18.09873816 3.99957158 18.12971799 6 18.125 C7.093125 18.12757812 8.18625 18.13015625 9.3125 18.1328125 C11.91830354 18.30547755 11.91830354 18.30547755 13 17 C13.07205511 15.31391034 13.08386068 13.62499341 13.0625 11.9375 C13.041875 10.308125 13.02125 8.67875 13 7 C8.38 7 3.76 7 -1 7 Z " fill="#000000" transform="translate(6,1)"/>
</svg>
