<?xml version="1.0" encoding="UTF-8"?>
<svg version="1.1" xmlns="http://www.w3.org/2000/svg" width="24" height="24">
<path d="M0 0 C0.66 0 1.32 0 2 0 C2 0.66 2 1.32 2 2 C4.64 2 7.28 2 10 2 C10 1.34 10 0.68 10 0 C10.66 0 11.32 0 12 0 C12 0.66 12 1.32 12 2 C12.99 2 13.98 2 15 2 C15 7.94 15 13.88 15 20 C9.06 20 3.12 20 -3 20 C-3 14.06 -3 8.12 -3 2 C-2.01 2 -1.02 2 0 2 C0 1.34 0 0.68 0 0 Z M-1 4 C-1 4.66 -1 5.32 -1 6 C3.62 6 8.24 6 13 6 C13 5.34 13 4.68 13 4 C8.38 4 3.76 4 -1 4 Z M-1 8 C-1 11.3 -1 14.6 -1 18 C3.62 18 8.24 18 13 18 C13 14.7 13 11.4 13 8 C8.38 8 3.76 8 -1 8 Z " fill="#758295" transform="translate(6,1)"/>
</svg>
